<?xml version="1.0" encoding="utf-8"?>
<!-- Generator: Adobe Illustrator 19.1.0, SVG Export Plug-In . SVG Version: 6.00 Build 0)  -->
<svg version="1.1" id="Layer_1" xmlns="http://www.w3.org/2000/svg" xmlns:xlink="http://www.w3.org/1999/xlink" x="0px" y="0px"
	 viewBox="-227 335 155.7 124" style="enable-background:new -227 335 155.7 124;" xml:space="preserve">
<style type="text/css">
	.st0{opacity:0.75;}
	.st1{opacity:0.75;fill:url(#SVGID_1_);stroke:#000000;stroke-miterlimit:10;}
	.st2{fill:#AC2024;stroke:#231F20;stroke-miterlimit:10;}
</style>
<g class="st0">
	<linearGradient id="SVGID_1_" gradientUnits="userSpaceOnUse" x1="-187.6286" y1="341.0286" x2="-107.7714" y2="420.8859">
		<stop  offset="0" style="stop-color:#E5E2DF"/>
		<stop  offset="0" style="stop-color:#DED9D6"/>
		<stop  offset="3.813257e-002" style="stop-color:#CFCCC9"/>
		<stop  offset="0.1113" style="stop-color:#A8A8A8"/>
		<stop  offset="0.2112" style="stop-color:#6A7072"/>
		<stop  offset="0.264" style="stop-color:#465053"/>
		<stop  offset="0.3722" style="stop-color:#878D8F"/>
		<stop  offset="0.4638" style="stop-color:#B7BABB"/>
		<stop  offset="0.5335" style="stop-color:#D5D6D6"/>
		<stop  offset="0.573" style="stop-color:#E0E0E0"/>
		<stop  offset="0.632" style="stop-color:#D6D7D8"/>
		<stop  offset="0.7314" style="stop-color:#BCBFC2"/>
		<stop  offset="0.8582" style="stop-color:#92989E"/>
		<stop  offset="0.8764" style="stop-color:#8B9298"/>
		<stop  offset="1" style="stop-color:#D1D3D4"/>
		<stop  offset="1" style="stop-color:#A7A9AC"/>
	</linearGradient>
	<path class="st1" d="M-147.7,339.3c-25.1,0-43.4,5.2-43.4,5.2v15.4c28.9-4.8,57.9-4.8,86.8,0v-15.4
		C-104.3,344.5-122.6,339.3-147.7,339.3 M-191.1,392.6v6.1c0,32.9,39.6,52.2,41.3,53l2.1,1l2.1-1c1.7-0.8,41.3-20.1,41.3-53v-6.1
		C-133.1,387.7-162.2,387.7-191.1,392.6z"/>
	<path class="st2" d="M-77.9,402.6c-1.4-4.7-2.8-9.3-4.2-14c2.4-3.6,4.8-7.2,7.3-10.7c-4.7-1.4-9.4-2.6-14.2-3.7
		c-0.6,6.1-1.2,12.2-1.8,18.4c-2.8,1.5-5.6,3.2-8.4,4.8C-92.1,398.8-85,400.5-77.9,402.6 M-217.4,402.6c7.1-2,14.2-3.8,21.3-5.2
		c-2.8-1.6-5.6-3.3-8.4-4.8c-0.6-6.1-1.2-12.3-1.8-18.4c-4.7,1.1-9.5,2.3-14.2,3.7c2.5,3.5,4.9,7.1,7.3,10.7
		C-214.6,393.3-216,397.9-217.4,402.6 M-90.8,366.1c-37.7-8.3-76-8.3-113.8,0c0.8,8.3,1.6,16.6,2.4,24.9c36.1-8,72.8-8,109,0
		C-92.4,382.7-91.6,374.4-90.8,366.1z"/>
</g>
<g>
	<g>
		<path d="M-182,386c-1,0.1-1.8,0.1-2.5-0.2c-0.6-0.3-1.1-0.6-1.4-0.9c-0.8-0.9-1.2-2.3-1.2-4.2c0-3.7,0-5.5,0-9.2
			c0-1.9,0.4-3.4,1.2-4.6c0.2-0.2,0.3-0.4,0.6-0.7c0.2-0.2,0.5-0.4,0.8-0.7c0.3-0.2,0.7-0.4,1.1-0.6c0.4-0.2,0.9-0.3,1.4-0.4
			c1-0.1,1.9-0.1,2.5,0.2c0.6,0.3,1.1,0.6,1.4,1c0.8,0.9,1.2,2.4,1.2,4.3c0,3.7,0,5.5,0,9.2c0,1.9-0.4,3.4-1.2,4.6
			c-0.3,0.4-0.8,0.9-1.4,1.3C-180.1,385.5-180.9,385.8-182,386z M-182,367.4c-0.2,0-0.4,0.1-0.7,0.2c-0.3,0.1-0.5,0.2-0.8,0.5
			c-0.3,0.2-0.5,0.6-0.6,1.1c-0.2,0.5-0.2,1.1-0.2,2c0,3.7,0,5.5,0,9.2c0,0.9,0.1,1.5,0.2,1.9c0.2,0.4,0.4,0.7,0.6,0.9
			c0.2,0.2,0.5,0.3,0.8,0.3c0.3,0,0.5,0,0.7,0c0.2,0,0.4-0.1,0.7-0.2c0.3-0.1,0.5-0.2,0.8-0.5c0.3-0.2,0.5-0.6,0.6-1.1
			c0.2-0.5,0.2-1.1,0.2-2c0-3.7,0-5.5,0-9.2c0-0.8-0.1-1.5-0.2-1.9c-0.2-0.4-0.4-0.7-0.6-0.9c-0.3-0.2-0.5-0.3-0.8-0.3
			C-181.6,367.3-181.8,367.3-182,367.4z"/>
		<path d="M-161.1,362.6c-2.2,8.7-3.2,13-5.4,21.7c-0.9,0.1-1.3,0.1-2.1,0.2c-2.1-8.4-3.2-12.5-5.3-20.9c1.1-0.1,1.7-0.2,2.8-0.3
			c1.4,5.6,2.1,8.4,3.6,14c1.5-5.9,2.2-8.8,3.6-14.6C-162.8,362.7-162.2,362.7-161.1,362.6z"/>
		<path d="M-156.3,383.8c-1.1,0-1.6,0.1-2.7,0.1c0-8.5,0-12.8,0-21.4c1.8-0.1,2.7-0.1,4.4-0.2c1.8-0.1,3.2,0.5,4.2,1.5
			c0.9,1,1.3,2.5,1.3,4.4c0,2-0.4,3.4-1.3,4.4c-0.9,1.1-2.3,1.7-4.2,1.7c-0.7,0-1,0-1.7,0.1C-156.3,378.2-156.3,380.1-156.3,383.8z
			 M-156.3,371.7c0.7,0,1,0,1.7-0.1c0.8,0,1.3-0.1,1.5-0.3c0.3-0.2,0.4-0.3,0.5-0.4c0.4-0.5,0.6-1.3,0.6-2.7c0-0.7-0.1-1.3-0.2-1.7
			c-0.1-0.4-0.3-0.7-0.5-1c-0.2-0.2-0.5-0.4-0.8-0.4c-0.3-0.1-0.7-0.1-1.2-0.1c-0.7,0-1,0-1.7,0.1
			C-156.3,367.8-156.3,369.1-156.3,371.7z"/>
		<path d="M-143.7,383.7c-1.1,0-1.6,0-2.7,0c0-8.5,0-12.8,0-21.4c0.9,0,1.4,0,2.3,0c2.1,5.2,3.1,7.8,5.2,13.1c0-5.2,0-7.8,0-12.9
			c1.1,0,1.7,0.1,2.8,0.1c0,8.5,0,12.8,0,21.4c-0.9,0-1.4-0.1-2.3-0.1c-2.1-5.3-3.1-7.9-5.2-13.1
			C-143.7,375.9-143.7,378.5-143.7,383.7z"/>
		<path d="M-132.6,384.1c0-1.2,0-1.8,0-3.1c1.1,0.1,1.6,0.1,2.7,0.2c0,1.2,0,1.8,0,3.1C-131,384.2-131.5,384.2-132.6,384.1z"/>
		<path d="M-124.9,384.7c0-8.5,0-12.8,0-21.4c1.1,0.1,1.6,0.2,2.7,0.3c0,8.5,0,12.8,0,21.4C-123.3,384.9-123.8,384.8-124.9,384.7z"
			/>
		<path d="M-113.4,386c-1-0.1-1.8-0.4-2.5-0.9c-0.6-0.4-1.1-0.9-1.4-1.3c-0.8-1.1-1.2-2.7-1.2-4.6c0-3.7,0-5.5,0-9.2
			c0-1.9,0.4-3.3,1.2-4.3c0.2-0.2,0.3-0.3,0.6-0.5s0.5-0.3,0.8-0.4c0.3-0.1,0.7-0.2,1.1-0.3c0.4-0.1,0.9,0,1.4,0
			c1,0.1,1.9,0.4,2.5,0.9c0.6,0.5,1.1,0.9,1.4,1.3c0.8,1.2,1.2,2.7,1.2,4.6c0,3.7,0,5.5,0,9.2c0,1.9-0.4,3.3-1.2,4.2
			c-0.3,0.3-0.8,0.6-1.4,0.9C-111.5,386.1-112.4,386.1-113.4,386z M-113.4,367.4c-0.2,0-0.4,0-0.7,0c-0.3,0-0.5,0.1-0.8,0.3
			c-0.3,0.2-0.5,0.5-0.6,0.9c-0.2,0.4-0.2,1.1-0.2,1.9c0,3.7,0,5.5,0,9.2c0,0.9,0.1,1.5,0.2,2c0.2,0.5,0.4,0.8,0.6,1.1
			c0.3,0.2,0.5,0.4,0.8,0.5c0.3,0.1,0.5,0.1,0.7,0.2c0.2,0,0.4,0,0.7,0c0.3,0,0.5-0.1,0.8-0.3c0.2-0.2,0.5-0.5,0.6-0.9
			c0.2-0.4,0.2-1.1,0.2-1.9c0-3.7,0-5.5,0-9.2c0-0.8-0.1-1.5-0.2-2c-0.2-0.5-0.4-0.8-0.6-1.1s-0.5-0.4-0.8-0.5
			C-113,367.4-113.2,367.4-113.4,367.4z"/>
	</g>
</g>
</svg>
